# xmcd CD database file
#
# Track frame offsets:
#	150
#	16403
#	33771
#	56112
#	71025
#	85612
#	103609
#	121508
#	138249
#
# Disc length: 2125 seconds
#
# Revision: 1
# Processed by: cddbd v1.5.2PL0 Copyright (c) Steve Scherf et al.
# Submitted via: CDex 1.78
#
DISCID=6a084b09
DTITLE=K.T. Oslin - Simply
DYEAR=2015
DGENRE=Country
TTITLE0=Do You Think About Me
TTITLE1=Younger Men
TTITLE2=Hold Me
TTITLE3=I Can't Remember Not Loving You
TTITLE4=Live Close By, Visit Often
TTITLE5=New Way Home
TTITLE6=She Don't Talk Like Us No More
TTITLE7=Maybe We Should Learn to Tango
TTITLE8=80's Ladies
EXTD=YEAR: 2015
EXTT0=
EXTT1=
EXTT2=
EXTT3=
EXTT4=
EXTT5=
EXTT6=
EXTT7=
EXTT8=
PLAYORDER=
